<svg width="18" height="21" viewBox="0 0 18 21" fill="none" xmlns="http://www.w3.org/2000/svg">
<g filter="url(#filter0_d_16531_32568)">
<path fill-rule="evenodd" clip-rule="evenodd" d="M13.4711 3.52859C13.7314 3.78894 13.7314 4.21105 13.4711 4.4714L5.47108 12.4714C5.21073 12.7317 4.78862 12.7317 4.52827 12.4714C4.26792 12.2111 4.26792 11.7889 4.52827 11.5286L12.5283 3.52859C12.7886 3.26824 13.2107 3.26824 13.4711 3.52859Z" fill="url(#paint0_linear_16531_32568)"/>
<path fill-rule="evenodd" clip-rule="evenodd" d="M4.52827 3.52859C4.78862 3.26824 5.21073 3.26824 5.47108 3.52859L13.4711 11.5286C13.7314 11.7889 13.7314 12.2111 13.4711 12.4714C13.2107 12.7317 12.7886 12.7317 12.5283 12.4714L4.52827 4.4714C4.26792 4.21105 4.26792 3.78894 4.52827 3.52859Z" fill="url(#paint1_linear_16531_32568)"/>
</g>
<defs>
<filter id="filter0_d_16531_32568" x="-3" y="0" width="24" height="24" filterUnits="userSpaceOnUse" color-interpolation-filters="sRGB">
<feFlood flood-opacity="0" result="BackgroundImageFix"/>
<feColorMatrix in="SourceAlpha" type="matrix" values="0 0 0 0 0 0 0 0 0 0 0 0 0 0 0 0 0 0 127 0" result="hardAlpha"/>
<feOffset dy="4"/>
<feGaussianBlur stdDeviation="2"/>
<feComposite in2="hardAlpha" operator="out"/>
<feColorMatrix type="matrix" values="0 0 0 0 0 0 0 0 0 0 0 0 0 0 0 0 0 0 0.25 0"/>
<feBlend mode="normal" in2="BackgroundImageFix" result="effect1_dropShadow_16531_32568"/>
<feBlend mode="normal" in="SourceGraphic" in2="effect1_dropShadow_16531_32568" result="shape"/>
</filter>
<linearGradient id="paint0_linear_16531_32568" x1="8.83158" y1="-14.0208" x2="-27.2403" y2="14.5878" gradientUnits="userSpaceOnUse">
<stop stop-color="#F83600"/>
<stop offset="1" stop-color="#F9D423"/>
</linearGradient>
<linearGradient id="paint1_linear_16531_32568" x1="8.83158" y1="-14.0208" x2="-27.2403" y2="14.5878" gradientUnits="userSpaceOnUse">
<stop stop-color="#F83600"/>
<stop offset="1" stop-color="#F9D423"/>
</linearGradient>
</defs>
</svg>
